<svg xmlns="http://www.w3.org/2000/svg" viewBox="0 0 800 600" fill="none">
  <defs>
    <linearGradient id="heroGlow" x1="0%" y1="0%" x2="100%" y2="100%">
      <stop offset="0%" stop-color="#1028F6" stop-opacity="0.35" />
      <stop offset="50%" stop-color="#6366F1" stop-opacity="0.2" />
      <stop offset="100%" stop-color="#8B5CF6" stop-opacity="0.35" />
    </linearGradient>
    <linearGradient id="heroChart" x1="0%" y1="0%" x2="0%" y2="100%">
      <stop offset="0%" stop-color="#8B5CF6" stop-opacity="0.6" />
      <stop offset="100%" stop-color="#8B5CF6" stop-opacity="0" />
    </linearGradient>
  </defs>
  <ellipse cx="400" cy="300" rx="360" ry="240" fill="url(#heroGlow)" />
  <rect x="120" y="140" width="560" height="340" rx="20" fill="#0F1424" stroke="#1E2740" stroke-width="1.5" />
  <rect x="140" y="160" width="240" height="12" rx="6" fill="#334155" />
  <rect x="140" y="182" width="160" height="8" rx="4" fill="#1E293B" />
  <path
    d="M140 400 L200 340 L260 380 L320 300 L380 340 L440 260 L500 300 L560 220 L620 260 L660 200"
    stroke="#8B5CF6"
    stroke-width="3"
    stroke-linecap="round"
    stroke-linejoin="round"
    fill="none"
  />
  <path
    d="M140 400 L200 340 L260 380 L320 300 L380 340 L440 260 L500 300 L560 220 L620 260 L660 200 L660 460 L140 460 Z"
    fill="url(#heroChart)"
  />
  <circle cx="660" cy="200" r="6" fill="#8B5CF6" />
  <circle cx="660" cy="200" r="12" fill="#8B5CF6" fill-opacity="0.25" />
  <rect x="140" y="240" width="120" height="60" rx="8" fill="#141B2D" stroke="#1E2740" stroke-width="1" />
  <rect x="156" y="256" width="60" height="8" rx="4" fill="#64748B" />
  <rect x="156" y="272" width="88" height="12" rx="4" fill="#8B5CF6" />
</svg>